<svg xmlns="http://www.w3.org/2000/svg" version="1.1" xmlns:xlink="http://www.w3.org/1999/xlink" xmlnsSvgjs="http://svgjs.com/svgjs" width="200" height="200" preserveAspectRatio="none" viewBox="0 0 200 200"><g mask="url(&quot;#SvgjsMask1292&quot;)" fill="none"><rect width="200" height="200" x="0" y="0" fill="rgba(26, 154, 254, 1)"></rect><path d="M48.032399243860006 137.3266535019026L89.28035292625297 177.15933935675153 87.86508509870893 96.07869981950964z" fill="rgba(66, 167, 245, 1)" class="triangle-float2"></path><path d="M144.69628965016727 7.360179807726462L144.69628965016727 51.16491037303243 188.50102021547326 51.16491037303241 188.50102021547323 7.3601798077264515z" fill="rgba(66, 167, 245, 1)" class="triangle-float1"></path><path d="M34.685673469073606-9.431423004613496L-11.228579807696477-2.1593196964532577-3.9564764995362367 43.75493358031683 41.957776777233846 36.48283027215659z" fill="rgba(66, 167, 245, 1)" class="triangle-float1"></path><path d="M57.50099582180481 150.84537205841357L35.13169799907032 126.00174994854325 10.288075889199988 148.37104777127774 32.657373711934476 173.21466988114807z" fill="rgba(66, 167, 245, 1)" class="triangle-float1"></path><path d="M135.94961287386005 117.52229842658168L173.34331468177893 94.15612021237675 149.977136467574 56.76241840445786 112.58343465965511 80.12859661866278z" fill="rgba(66, 167, 245, 1)" class="triangle-float1"></path><path d="M157.48189902214932 176.89967978504237L224.16619360075794 186.33636171450658 203.0678726597128 131.3733565475897z" fill="rgba(66, 167, 245, 1)" class="triangle-float1"></path><path d="M92.70455938511054 173.08781101240496L101.41468461150009 214.06572840980496 142.3926020089001 205.3556031834154 133.68247678251055 164.3776857860154z" fill="rgba(66, 167, 245, 1)" class="triangle-float1"></path><path d="M31.00913246865311 62.454526963941156L27.19555390640508 93.5136319051864 75.69100059939694 83.70444727793583z" fill="rgba(66, 167, 245, 1)" class="triangle-float3"></path><path d="M40.77424808940031 20.99453101349306L70.15585175691984 43.135157455667496 92.29647819909428 13.753553788147965 62.91487453157475-8.387072654026476z" fill="rgba(66, 167, 245, 1)" class="triangle-float1"></path></g><defs><mask id="SvgjsMask1292"><rect width="200" height="200" fill="#ffffff"></rect></mask></defs></svg>