<?xml version="1.0" encoding="UTF-8" standalone="no"?> <svg width="512" height="512" viewBox="0 0 512 512" fill="none" xmlns="http://www.w3.org/2000/svg">
<path fill-rule="evenodd" clip-rule="evenodd" d="M128 24C70.5624 24 24 70.5624 24 128V384C24 441.438 70.5624 488 128 488H384C441.438 488 488 441.438 488 384V128C488 70.5624 441.438 24 384 24H128ZM40 128C40 79.3989 79.3989 40 128 40H384C432.601 40 472 79.3989 472 128V384C472 432.601 432.601 472 384 472H128C79.3989 472 40 432.601 40 384V128ZM163.664 123.676C161.277 108.398 146.956 97.9473 131.677 100.335C116.399 102.722 105.948 117.043 108.336 132.322L148.336 388.322C150.33 401.084 160.796 410.826 173.668 411.902C186.54 412.977 198.478 405.108 202.563 392.853L256 232.543L309.437 392.853C313.522 405.108 325.459 412.977 338.332 411.902C351.204 410.826 361.67 401.084 363.664 388.322L403.664 132.322C406.052 117.043 395.601 102.722 380.323 100.335C365.044 97.9473 350.723 108.398 348.336 123.676L326.124 265.828L282.563 135.145C278.752 123.711 268.052 115.999 256 115.999C243.948 115.999 233.248 123.711 229.437 135.145L185.876 265.828L163.664 123.676ZM134.147 116.143C140.695 115.12 146.833 119.598 147.856 126.146L175.15 300.826C175.72 304.473 178.71 307.256 182.388 307.564C186.066 307.871 189.476 305.622 190.643 302.121L244.616 140.204C246.249 135.304 250.835 131.999 256 131.999C261.165 131.999 265.751 135.304 267.384 140.204L321.357 302.121C322.524 305.623 325.934 307.871 329.612 307.564C333.29 307.256 336.28 304.473 336.85 300.826L364.144 126.146C365.167 119.598 371.305 115.12 377.852 116.143C384.4 117.166 388.879 123.304 387.856 129.851L347.856 385.851C347.001 391.321 342.516 395.496 336.999 395.957C331.483 396.418 326.366 393.046 324.616 387.794L263.589 204.715C262.5 201.448 259.443 199.245 256 199.245C252.556 199.245 249.499 201.448 248.41 204.715L187.384 387.794C185.634 393.046 180.517 396.418 175.001 395.957C169.484 395.496 164.998 391.321 164.144 385.851L124.144 129.851C123.121 123.304 127.599 117.166 134.147 116.143Z" fill="url(#paint0_linear)"/>
<defs>
<linearGradient id="paint0_linear" x1="64" y1="64" x2="448" y2="448" gradientUnits="userSpaceOnUse">
<stop stop-color="#FF003D"/>
<stop offset="1" stop-color="#3D00EB"/>
</linearGradient>
</defs>
</svg>
