<svg xmlns="http://www.w3.org/2000/svg" version="1.1" xmlns:xlink="http://www.w3.org/1999/xlink" xmlnsSvgjs="http://svgjs.com/svgjs" width="200" height="200" preserveAspectRatio="none" viewBox="0 0 200 200"><g mask="url(&quot;#SvgjsMask1382&quot;)" fill="none"><rect width="200" height="200" x="0" y="0" fill="rgba(38, 205, 179, 1)"></rect><path d="M7.611329209178491 168.51811734570563L35.130084859534044 195.0926707739127 61.70463828774109 167.57391512355713 34.18588263738554 140.99936169535007z" fill="rgba(66, 237, 210, 1)" class="triangle-float3"></path><path d="M64.15839384880661 105.04762570645849L68.77131686188214 142.61686877052173 106.34055992594537 138.00394575744622 101.72763691286985 100.43470269338296z" fill="rgba(66, 237, 210, 1)" class="triangle-float2"></path><path d="M117.75704049341203 198.58285003510568L123.39800870292817 152.64085074761485 77.45600941543734 146.99988253809872 71.8150412059212 192.94188182558955z" fill="rgba(66, 237, 210, 1)" class="triangle-float1"></path><path d="M69.31804455544629 71.58616481519097L15.210662663240726 82.05007050599953 46.17678102271944 118.95405330960581z" fill="rgba(66, 237, 210, 1)" class="triangle-float2"></path><path d="M76.52330131144278-19.46040675421804L31.770064573208558-25.750064001043206 25.480407326383393 19.003172737191015 70.23364406461762 25.29282998401618z" fill="rgba(66, 237, 210, 1)" class="triangle-float3"></path><path d="M118.1978348311227 54.22375080276869L89.93793483146344 101.25612254547903 136.97030657417378 129.5160225451383 165.23020657383304 82.48365080242796z" fill="rgba(66, 237, 210, 1)" class="triangle-float2"></path><path d="M111.81702843322728-2.4406219929236013L77.70846607530584 38.20837973535292 152.4660301615038 31.66794036499784z" fill="rgba(66, 237, 210, 1)" class="triangle-float2"></path><path d="M152.81104322835756 158.06919014715305L110.25683076026584 160.29936192174443 112.48700253485725 202.85357438983615 155.04121500294895 200.62340261524477z" fill="rgba(66, 237, 210, 1)" class="triangle-float3"></path><path d="M81.73736631967846 56.656759288623675L61.618920340758564 79.80038394515569 104.88099097621046 76.77520526754357z" fill="rgba(66, 237, 210, 1)" class="triangle-float3"></path></g><defs><mask id="SvgjsMask1382"><rect width="200" height="200" fill="#ffffff"></rect></mask></defs></svg>