<svg xmlns="http://www.w3.org/2000/svg" version="1.1" xmlns:xlink="http://www.w3.org/1999/xlink" xmlnsSvgjs="http://svgjs.com/svgjs" width="200" height="200" preserveAspectRatio="none" viewBox="0 0 200 200"><g mask="url(&quot;#SvgjsMask1317&quot;)" fill="none"><rect width="200" height="200" x="0" y="0" fill="rgba(249, 130, 55, 1)"></rect><path d="M138.90762028084382 147.5298644549858L126.785136849691 187.1807211283026 166.4359935230078 199.30320455945542 178.5584769541606 159.6523478861386z" fill="rgba(255, 161, 103, 1)" class="triangle-float1"></path><path d="M87.05351481603846 202.51178518972458L110.36379153487056 187.37391448897986 76.00184712433744 159.97743476110406z" fill="rgba(255, 161, 103, 1)" class="triangle-float2"></path><path d="M-29.675818167179997 151.24508763189652L11.693844180058264 182.41936424504297 42.868120793204696 141.0497018978047 1.4984584459664347 109.87542528465826z" fill="rgba(255, 161, 103, 1)" class="triangle-float2"></path><path d="M156.967885097111 133.66551612809454L129.89556804187632 103.5986620011271 99.82871391490887 130.67097905636177 126.90103097014357 160.73783318332923z" fill="rgba(255, 161, 103, 1)" class="triangle-float1"></path><path d="M67.98889360270161 62.8766465843826L38.693462131749534 111.52734832835449 88.30668154169828 113.25988012711282z" fill="rgba(255, 161, 103, 1)" class="triangle-float1"></path><path d="M13.031029166233193 159.97779895409423L57.13040810150713 127.93772469899392 25.090333846406832 83.83834576371999-19.009045088867108 115.8784200188203z" fill="rgba(255, 161, 103, 1)" class="triangle-float1"></path><path d="M160.28061786962058 60.425458992927595L120.92550333702944 105.69833941378488 205.55349829047788 99.78057352551875z" fill="rgba(255, 161, 103, 1)" class="triangle-float1"></path><path d="M156.71377466687312 129.79515306748507L179.45779417908125 174.43280469955883 224.095445811155 151.68878518735073 201.35142629894688 107.05113355527696z" fill="rgba(255, 161, 103, 1)" class="triangle-float3"></path><path d="M152.7564849101782 67.06611124192149L169.64109718573621 20.676020278579458 123.25100622239418 3.7914080030214308 106.36639394683615 50.18149896636346z" fill="rgba(255, 161, 103, 1)" class="triangle-float1"></path></g><defs><mask id="SvgjsMask1317"><rect width="200" height="200" fill="#ffffff"></rect></mask></defs></svg>