<svg xmlns="http://www.w3.org/2000/svg" version="1.1" xmlns:xlink="http://www.w3.org/1999/xlink" xmlnsSvgjs="http://svgjs.com/svgjs" width="200" height="200" preserveAspectRatio="none" viewBox="0 0 200 200"><g mask="url(&quot;#SvgjsMask1263&quot;)" fill="none"><rect width="200" height="200" x="0" y="0" fill="rgba(117, 84, 253, 1)"></rect><path d="M79.65123823216942 115.94176184296464L110.08466679613517 82.20672536057685 71.38615509375904 73.27246996459783z" fill="rgba(141, 113, 255, 1)" class="triangle-float3"></path><path d="M148.4983986519463 84.35329553567425L201.5163754872504 88.06067363146194 205.22375358303808 35.04269679615786 152.205776747734 31.335318700370166z" fill="rgba(141, 113, 255, 1)" class="triangle-float2"></path><path d="M2.3923862930291584 31.13885316874864L25.085064533642438 51.5714324325464 44.38759430903244 7.316125439727607z" fill="rgba(141, 113, 255, 1)" class="triangle-float3"></path><path d="M128.51829812895252 39.773708266624496L98.9636711928637 73.70704918120518 137.44064125140173 81.88558164032841z" fill="rgba(141, 113, 255, 1)" class="triangle-float3"></path><path d="M171.44666590711972 23.31211995907121L125.33922622454213-2.3031243090274467 125.33922622454213 43.80431537355014z" fill="rgba(141, 113, 255, 1)" class="triangle-float2"></path><path d="M49.26219920888296 98.62547061005503L9.888975159301289 92.38936455518946 3.652869104435716 131.76258860477114 43.02609315401739 137.9986946596367z" fill="rgba(141, 113, 255, 1)" class="triangle-float1"></path><path d="M131.08210171981452 198.0647711054772L91.25786629302806 156.82556809750747 89.8428987118448 237.88900653226366z" fill="rgba(141, 113, 255, 1)" class="triangle-float3"></path><path d="M19.356717626736902 179.72962253775495L51.36662088794433 147.71971927654752-12.653185634470532 147.71971927654752z" fill="rgba(141, 113, 255, 1)" class="triangle-float3"></path><path d="M152.25582240151294 180.04593757259346L173.99099874716512 128.8410709570923 101.0509557860118 158.31076122694128z" fill="rgba(141, 113, 255, 1)" class="triangle-float2"></path></g><defs><mask id="SvgjsMask1263"><rect width="200" height="200" fill="#ffffff"></rect></mask></defs></svg>