<svg xmlns="http://www.w3.org/2000/svg" version="1.1" xmlns:xlink="http://www.w3.org/1999/xlink" xmlnsSvgjs="http://svgjs.com/svgjs" width="200" height="200" preserveAspectRatio="none" viewBox="0 0 200 200"><g mask="url(&quot;#SvgjsMask1404&quot;)" fill="none"><rect width="200" height="200" x="0" y="0" fill="rgba(244, 49, 162, 1)"></rect><path d="M56.80272779607446 82.61279354401513L61.23025945457216 133.7813146459553 98.45112063027742 108.67552677873245z" fill="rgba(239, 97, 179, 1)" class="triangle-float2"></path><path d="M109.5135015983893 114.44354801572774L171.6668935302303 124.34840681326143 152.84982679124337 72.64894084752429z" fill="rgba(239, 97, 179, 1)" class="triangle-float1"></path><path d="M151.45026986230138 90.17839690459061L124.62358672605936 39.60853749616449 97.36926718877987 81.57650926422845z" fill="rgba(239, 97, 179, 1)" class="triangle-float2"></path><path d="M77.88022556980118 176.97922082134744L114.38678702574595 217.52386484770074 154.93143105209924 181.01730339175597 118.42486959615448 140.47265936540268z" fill="rgba(239, 97, 179, 1)" class="triangle-float1"></path><path d="M166.99458528889141 18.82571226900238L117.36217313049369-14.720637508646663 112.79806195255335 37.44739197082902z" fill="rgba(239, 97, 179, 1)" class="triangle-float3"></path><path d="M76.12299564038383 52.253294720224794L34.85019456120323 41.194281001687976 23.791180842666414 82.46708208086858 65.06398192184702 93.5260957994054z" fill="rgba(239, 97, 179, 1)" class="triangle-float2"></path><path d="M33.12478164972785 80.01878938236275L44.50307517298475 122.48315891458941 75.58915118195449 68.64049585910585z" fill="rgba(239, 97, 179, 1)" class="triangle-float1"></path><path d="M108.62828327408246 112.35385003563668L156.54767953725644 127.92380571313143 172.11763521475117 80.00440944995745 124.19823895157721 64.43445377246272z" fill="rgba(239, 97, 179, 1)" class="triangle-float2"></path><path d="M98.12801950103271 153.8012451160058L55.39022521153146 156.74883634629236 75.78603306701041 188.15562627163865z" fill="rgba(239, 97, 179, 1)" class="triangle-float2"></path></g><defs><mask id="SvgjsMask1404"><rect width="200" height="200" fill="#ffffff"></rect></mask></defs></svg>