<svg xmlns="http://www.w3.org/2000/svg" version="1.1" xmlns:xlink="http://www.w3.org/1999/xlink" xmlnsSvgjs="http://svgjs.com/svgjs" width="200" height="200" preserveAspectRatio="none" viewBox="0 0 200 200"><g mask="url(&quot;#SvgjsMask1048&quot;)" fill="none"><rect width="200" height="200" x="0" y="0" fill="rgba(249, 33, 33, 1)"></rect><path d="M89.4762220548519 155.15857979481075L65.6103842844728 196.49542337830368 130.81306563834482 179.02441756518985z" fill="rgba(255, 109, 109, 1)" class="triangle-float1"></path><path d="M55.53945102981408-35.12169357914851L21.79051655150316 6.5547696442054 63.46697977485707 40.30370412251632 97.215914253168-1.372759100837591z" fill="rgba(255, 109, 109, 1)" class="triangle-float1"></path><path d="M35.52357853427286 170.3897896111369L15.703027785448693 151.90682702230126-2.111140723392708 190.87913443995535z" fill="rgba(255, 109, 109, 1)" class="triangle-float1"></path><path d="M30.313816194489533 47.43351897916779L-14.964409760694089 51.39485045481161-11.003078285050272 96.67307640999523 34.27514767013335 92.71174493435142z" fill="rgba(255, 109, 109, 1)" class="triangle-float2"></path><path d="M129.04568935814927 17.962756830273552L96.84966171001889 63.94344954096496 175.0263820688407 50.15878447840393z" fill="rgba(255, 109, 109, 1)" class="triangle-float2"></path><path d="M214.25055118177607 50.23497014225705L156.73189819759693 49.230978319834584 155.72790637517448 106.74963130401372 213.24655935935363 107.75362312643618z" fill="rgba(255, 109, 109, 1)" class="triangle-float3"></path><path d="M79.83069425193914 134.58624939582702L108.53176913487636 158.66931074449116 130.3058237164039 103.57616774575325z" fill="rgba(255, 109, 109, 1)" class="triangle-float3"></path><path d="M83.54648826902525 60.70555044861225L101.25222957823067 95.53704749143702 120.35216261176429 67.22023227471293z" fill="rgba(255, 109, 109, 1)" class="triangle-float3"></path><path d="M98.03796543172626 35.4839927615304L117.91962295333963 84.69282191740082 147.2467945875967 15.602335239917032z" fill="rgba(255, 109, 109, 1)" class="triangle-float1"></path></g><defs><mask id="SvgjsMask1048"><rect width="200" height="200" fill="#ffffff"></rect></mask></defs></svg>